<!-- Generator: Adobe Illustrator 19.2.1, SVG Export Plug-In  -->
<svg version="1.1"
	 xmlns="http://www.w3.org/2000/svg" xmlns:xlink="http://www.w3.org/1999/xlink" xmlns:a="http://ns.adobe.com/AdobeSVGViewerExtensions/3.0/"
	 x="0px" y="0px" width="88.4px" height="93.6px" viewBox="0 0 88.4 93.6" style="enable-background:new 0 0 88.4 93.6;"
	 xml:space="preserve">
<style type="text/css">
	.st0{fill:#EEEEEE;}
</style>
<defs>
</defs>
<path d="M44.8,6.6c0,0,4.3-3.1,9.3-3.3s3.2,1,7.1-2.1s11.9,0.4,12.1,4.5s-2.6,9.2-6,9.5c-3.5,0.3-5.5,12.3-10.2,16.1
	s-6,10.4-16.3,12.5C30.5,45.9,10.8,63.4,9.8,65.1c-1,1.7-12,4.2-9.4-5.9s19-25.4,25-27.9S28.8,14.8,44.8,6.6z"/>
<g>
	<path class="st0" d="M56.3,14.1c0,0,0.9,2.2,0.3,2.8c-0.6,0.6-2.1,0.6-2-1C54.7,14.3,55.5,13.2,56.3,14.1z"/>
	<path class="st0" d="M17.4,41.5c0,0,0.9,2.2,0.3,2.8c-0.6,0.6-2.1,0.6-2-1S16.6,40.6,17.4,41.5z"/>
	<path class="st0" d="M59.1,6c0,0,1.5,1,1.1,2.4s-2.2-0.6-2.2-1C58,6.9,58,5.7,59.1,6z"/>
	<path class="st0" d="M59.8,16.9c0,0,1.5,1,1.1,2.4s-2.2-0.6-2.2-1C58.7,17.7,58.7,16.6,59.8,16.9z"/>
	<path class="st0" d="M59.4,10.9c0,0,0.9,1.9-0.7,2c-1.6,0.2-1.5-0.9-1-1.4C58.2,11.1,58.9,10.7,59.4,10.9z"/>
	<path class="st0" d="M62.7,12.8c0,0,0.6,1.5-0.2,1.9c-0.8,0.4-1.7-0.2-1.5-0.8C61.1,13.2,62.6,12.4,62.7,12.8z"/>
	<path class="st0" d="M43.9,19.4c0,0,1,1.5,1.5,1.1s0.8-1.3-0.3-3.3C44.1,15.2,42.8,16.9,43.9,19.4z"/>
	<path class="st0" d="M47.7,10c0,0,2-0.6,2.4,0.1c0.4,0.7,0.1,2.5-1.2,2.1S46.8,10.8,47.7,10z"/>
	<path class="st0" d="M19.9,45.2c0,0,2-0.6,2.4,0.1c0.4,0.7,0.1,2.5-1.2,2.1C19.8,47,19,46,19.9,45.2z"/>
	<path class="st0" d="M37.6,39.6c0,0,1.2-1.6,2.2-0.8c1.1,0.8-0.9,2.4-1.3,2.3C38.1,41,37.1,40.8,37.6,39.6z"/>
	<path class="st0" d="M51,6.9c0,0,1.2-1.6,2.2-0.8c1.1,0.8-0.9,2.4-1.3,2.3C51.6,8.3,50.6,8.1,51,6.9z"/>
	<path class="st0" d="M53.8,30c0,0,1.5-0.7,1.3-1.3c-0.2-0.7-0.9-1.3-2.8-0.8S51.5,30.3,53.8,30z"/>
	<path class="st0" d="M57.9,21c0,0,0.5,2.3-0.1,2.8c-0.6,0.5-2.1,0.2-1.8-1.4C56.3,20.9,57.3,20,57.9,21z"/>
	<path class="st0" d="M30.7,31.8c0,0,0.5,2.3-0.1,2.8c-0.6,0.5-2.1,0.2-1.8-1.4C29.2,31.7,30.1,30.7,30.7,31.8z"/>
	<path class="st0" d="M43.6,23.7c0,0,1.4,1.3,0.7,2.6c-0.7,1.2-2.1-1.1-2-1.5C42.4,24.3,42.6,23.1,43.6,23.7z"/>
	<path class="st0" d="M42,35.3c0,0,1.4,1.3,0.7,2.6s-2.1-1.1-2-1.5C40.8,35.9,41,34.8,42,35.3z"/>
	<path class="st0" d="M43.3,29.3c0,0,0.6,2-1,1.8c-1.6-0.2-1.3-1.2-0.7-1.5C42.1,29.2,42.8,29,43.3,29.3z"/>
	<path class="st0" d="M46.6,30.4c0,0-0.6-0.1-1,0.3s0.4,1.2,0.7,1.3c0.3,0.1,1.1-0.1,0.9-0.8C47.1,30.4,47,30.4,46.6,30.4z"/>
	<path class="st0" d="M45.3,33.9c0,0,0.3,1.6-0.5,1.8c-0.9,0.2-1.6-0.5-1.4-1.1C43.6,34,45.2,33.4,45.3,33.9z"/>
	<path class="st0" d="M36.2,33c0,0,1.4-1.3,2.3-0.3c0.9,1-1.3,2.2-1.6,2C36.5,34.5,35.6,34.1,36.2,33z"/>
	<path class="st0" d="M37.7,23.3c0,0-1.4-1.9-1-2.6s1.9-1,2.2,0.5C39.2,22.7,38.7,24,37.7,23.3z"/>
	<path class="st0" d="M32.7,28.7c0,0-1.9-1-1.9-2.6c0-1.6,2.5,0.4,2.6,0.9C33.5,27.5,34,28.9,32.7,28.7z"/>
	<path class="st0" d="M38.5,28c0,0-1.3-1.6,0.2-2.1c1.5-0.5,1.7,0.5,1.3,1.1C39.6,27.6,39,28.1,38.5,28z"/>
	<path class="st0" d="M48.9,24.6c0,0-0.8,1.8-2,1.2s0.3-2.6,0.7-2.5C48,23.4,49.1,23.3,48.9,24.6z"/>
	<path class="st0" d="M48.2,34.4c0,0,1.2-1.6,2.2-0.8c1.1,0.8-0.9,2.4-1.3,2.3C48.8,35.8,47.8,35.6,48.2,34.4z"/>
	<path class="st0" d="M30.2,44.3c0,0,1.2-1.6,2.2-0.8c1.1,0.8-0.9,2.4-1.3,2.3C30.7,45.7,29.7,45.5,30.2,44.3z"/>
	<path class="st0" d="M24.9,38.4c0,0-2.1-1-2-1.8s1.2-1.8,2.2-0.6C25.9,37.2,26.1,38.5,24.9,38.4z"/>
	<path class="st0" d="M28.7,41.1c0,0-1.9,0.3-2.4-1c-0.5-1.3,2.1-1.1,2.4-0.7C29,39.7,29.7,40.6,28.7,41.1z"/>
	<path class="st0" d="M33.6,39.8c0,0-1.9-0.8-0.8-2c1.1-1.2,1.7-0.3,1.6,0.4C34.4,38.9,34.1,39.6,33.6,39.8z"/>
	<path class="st0" d="M21.7,41.5c0,0-1.4-0.7-1.1-1.5c0.4-0.8,1.4-1,1.7-0.4C22.7,40.2,22.2,41.8,21.7,41.5z"/>
	<path class="st0" d="M26,43.5c0,0,0.5,1.9-0.8,2.3c-1.2,0.4-1.3-2.2-1-2.5C24.6,43,25.4,42.4,26,43.5z"/>
	<path class="st0" d="M50.7,20.1c0,0,1.7-0.7,1.6,1.2c-0.1,1.8-1,1.5-1.3,0.8C50.7,21.5,50.5,20.7,50.7,20.1z"/>
	<path class="st0" d="M42.9,12.1c0,0-0.1,0.7,0.3,1.1s1.1-0.5,1.1-0.9c0.1-0.4-0.1-1.3-0.7-1C42.9,11.6,42.9,11.7,42.9,12.1z"/>
	<path class="st0" d="M49,15.7c0,0,1.4-0.4,1.6,0.6s-0.4,1.9-1,1.6C49,17.6,48.6,15.8,49,15.7z"/>
</g>
<path d="M53.6,33.8c0,0,7,1.7,9.4-1.5c2.3-3.1,3.9-3.8,5,1.9s2.7,13.4,5.4,17.2c2.7,3.8,8.5,9.3,12.7,10.9s3.3,7.1-7.3-1.9
	s-12.6-18.5-12.4-20c0.2-1.5-0.9-5.7-0.9-5.7s-3,3.9-12.9,3.6C42.7,37.9,48.1,27.1,53.6,33.8z"/>
<path d="M47.3,25.2c0,0,5.1-0.3,5.8-3.2s1.6-3.7,3.8,0.3c2.1,4,5.1,9.4,7.8,11.6c2.7,2.2,7.9,5,11.1,5.3s3.9,4.6-5.3,0.2
	s-12.9-11-13.2-12.1c-0.3-1.1-2-4.1-2-4.1s-1,3.6-7.6,5.5S42.1,21.5,47.3,25.2z"/>
<path d="M45.8,41.1c5,4.2-0.9,14.7-3.6,18.1c-2.7,3.4-1.4,25.2-1.1,27.5c0.2,2.3,3,6.7,6.2,6.9c3.2,0.3,3.5-1.8,0-4.6
	c-3.5-2.8-4.2-20.7-3-24.5c1.2-3.8,6.9-13.3,4.5-22.9S38.9,35.3,45.8,41.1z"/>
<path d="M42,36.5c2.7,3.9-3.5,10.1-6,12c-2.6,1.9-5.9,17.4-6.1,19c-0.3,1.6,0.8,5.2,3,6c2.2,0.8,2.8-0.6,0.9-3.2
	c-1.9-2.7,1.1-15.3,2.7-17.7c1.6-2.4,7.4-8,7.6-15.2S38.3,31.1,42,36.5z"/>
</svg>
