<!-- Generator: Adobe Illustrator 19.2.1, SVG Export Plug-In  -->
<svg version="1.1"
	 xmlns="http://www.w3.org/2000/svg" xmlns:xlink="http://www.w3.org/1999/xlink" xmlns:a="http://ns.adobe.com/AdobeSVGViewerExtensions/3.0/"
	 x="0px" y="0px" width="194.7px" height="227.2px" viewBox="0 0 194.7 227.2" style="enable-background:new 0 0 194.7 227.2;"
	 xml:space="preserve">
<style type="text/css">
	.st0{fill:#F73987;}
	.st1{fill:#E032A4;}
	.st2{fill:#D52C8E;}
	.st3{fill:#EA2FA6;}
	.st4{fill:#F238BE;}
	.st5{fill:#D71BA5;}
	.st6{fill:#B68051;}
	.st7{fill:#8CA328;}
	.st8{fill:#678704;}
</style>
<defs>
</defs>
<path class="st0" d="M61.6,117.8c0,0-4.9,9.9-2.3,10.8c2.7,0.9,7-1.3,8.5-3.8s3-9.5,2.8-10.5S61.6,117.8,61.6,117.8z"/>
<g>
	<path id="Petal_12_" class="st1" d="M175.7,16.7c0,0,2-6-4-5.3c-6,0.7-9-0.3-11.5-1.2c-2.5-0.8-14.2,7.7-17.7,13.2
		s-16.4,21.7-18.5,25c-2,3.3-7.9,21.7-7,23.3c0.8,1.7,15.7-2.3,18.7-6.7s14.1-8.7,15.9-10.1c1.7-1.4,1.8-3.3,4.8-6.2
		s14-11.8,14-14.2C170.4,32.2,174.6,17.4,175.7,16.7z"/>
	<path class="st2" d="M49.9,108.7c0,0-22.8-2.7-29.5,1c-6.7,3.7-14,11.7-17,14.2s-6.7,18.8,2,12.2s12.4-7,19.5-5s24.8-2.9,30.8-6.7
		s35.2-14.7,27-17.7S49.9,108.7,49.9,108.7z"/>
	<path id="Petal_5_" class="st3" d="M132.7,41.9c0,0,5.3-12.5,5.2-19.8c-0.2-7.3,3.3-16.7,3.3-17.5s-2.5-4.2-5.2-3s-4.7,1-6-0.8
		s-6.3-0.7-8,3.6c-1.7,4.3-4.7,12.1-6,13.8s-5.6,6.5-6.1,8.2s-7.3,12.2-8.2,14c-0.8,1.8-1.2,6.5-1.7,8.7c-0.5,2.2-1.7,16-1,17
		c0.7,1,3.8,16.7,3.8,18.7s0.5,7.7,0.7,9c0.2,1.3,0.5,2.8,1,3c0.5,0.2,3.9-0.1,6.2-2.2c2.4-2,6.6-6.2,7.6-7.5s5.2-6.2,4.7-9.2
		C122.6,74.9,132.7,41.9,132.7,41.9z"/>
	<path id="Petal_4_" class="st3" d="M74.6,76.4c0,0-18.2-4-22.7-3.3s-12.5,2.2-13.7,8s7.8,19,7.8,19s24.2,2.8,28.5,3.5
		c4.3,0.7,18.7-3.8,19-6C93.9,95.4,74.6,76.4,74.6,76.4z"/>
	<path id="Petal_3_" class="st4" d="M86.5,103.9c0,0-10.8-7.3-15.3-7.1c-4.5,0.1-6.5,0.5-15.8-7.5S38.6,76.1,33.2,77.1
		s-10.8-0.3-13.2,0.7s-4.2,4.2-4.3,6.8c-0.2,2.7-2.5,2.5-2.2,8.5c0.3,6-5.2,14.8,8.5,14.8s21.7,3,25.7,3s20,0.3,22.8,0
		c2.8-0.3,14.3-1,15.2-2S87.7,104.7,86.5,103.9z"/>
	<path id="Petal_2_" class="st5" d="M105.5,55.8c0,0-7.2-16.7-10.4-14.6c-3.2,2.1-10.6,6.2-14.2,7.4c-3.6,1.3-7.2,4.3-10.4,10.6
		c-3.2,6.3-8.3,12.5-4.5,21.3c3.8,8.8,16.2,23.9,24.4,25.7s9.7-1.3,13.3-3.3c3.6-2,6.1-3.6,6.1-3.6L105.5,55.8z"/>
	<path id="Petal_1_" class="st4" d="M120.4,88.1c0,0,12.5-17.3,21.7-25.2s21.9-16.4,27.3-20.3c7.5-5.3,9.9-5.7,15.1-4.5
		c5.2,1.2,8.5,0.7,10-3.2s-12-10.7-13.2-11.8c-1.2-1.2-3.3-4.2-6.8-3c0,0-5,0.2-8,1.3s-8.3,2.2-12.7,5s-16,13.8-18.2,16.3
		c-2.2,2.5-9,13.2-10.3,15c-1.3,1.8-13.2,23.7-12.2,25.7S120.4,88.1,120.4,88.1z"/>
</g>
<path class="st6" d="M97.7,104.4c0,0,2-6.2,7-7.7s6.7-2.8,7.7-4.8s4.2-7.5,7.3-6.4s6.7-1.1,6.4,0.3s-10.3,11.4-11.7,17.1
	c-1.3,5.7-7.2,6.7-9.7,5.2s-11.3,5-11.2,7.7c0.2,2.7-5.9,3.8-9.5,3.8c-3.6,0-10.7-2-10.7-3.5s7.7-8.1,11.6-9.8
	C88.8,104.6,93.6,104.7,97.7,104.4z"/>
<g>
	<path id="More_stem_2_" class="st7" d="M110.2,104.4c1.3,4.8-7.4-2.9-13.2-2.2c-5.8,0.7-11.6,1.5-10.6,4.8s1,4.2-4.5,2.8
		c-5.5-1.3-11.5,2.2-7.1,3.9c4.3,1.7,13.1,4.4,13.6,4.9s1.9,1.7,2.7,3c0.8,1.3,2.3,5,7.3,4s17.3-2,18.8-5.3
		c1.5-3.3,3.2-9.3,3.2-12.5c0-3.2,0.2-7.3,0-8.8c-0.2-1.5,3-6,3.5-7.8c0.5-1.8,0.3-4.7-3.3-1.7c-3.7,3-5,2.2-7.3,0.5
		S108.9,99.6,110.2,104.4z"/>
	<path id="Stem_2_" class="st8" d="M166.9,225.4c0,0-23-61.7-29.3-72.7s-12.5-21-13.3-23.8c-0.8-2.8-2.7-7,1.3-12.3
		s3.8-16.7,6.5-35.2c1.4-9.6-5.3-19.2-6.3-20c-1-0.8-1.3-0.2-0.3,2.3s5.2,10.2,4.2,15.2s-3.8,18.5-3.7,20.2c0.2,1.7-2,3.7-3.8-2.5
		c-1.8-6.2-6.5-14.8-7.5-18.2c-1-3.3-4-12.3-4.5-14.8s-1.5,3.2,0,9.8c1.5,6.7,6.8,22.8,6.3,26.8s2.2,17.3-4.5,16.8
		c-6.7-0.5-8.5-6.7-12-8.5s-9.7-6-12-8.5c-2.3-2.5-11.7-5.7-6.8-2.2s9.8,11.2,12.8,12.7s8.5,5.8,8,8.5s-0.3,6.5-6.3,5
		s-9.4-3.7-15.9-4.3c-6.5-0.7-8-1.5-15.6,0.5s-12-1.8-12.7-2.5c-0.7-0.7-4.2-0.3,1.2,2.3s8,2.3,12.8,1.5c4.8-0.8,11.8,0.5,14.5,1
		c2.7,0.5,12.5,4.2,14.7,5.2c2.2,1-4.8-0.5-9,0c-2.5,0.3-6.2,1.3-9.9,2c-2.4,0.4-12,0.1-15.1-0.3c-5.3-0.7-11.1-1.7-14.2-3.5
		c-4.8-2.8-9.2-3.5-3.7-0.7c5.5,2.8,11.7,5.8,19.7,6.8s19.7-1.2,23-1.2c3.3,0,7.9,0,11.6-0.2c3.7-0.2,4.9,0.5,9.4-0.7
		s7.3-1,13.8,8.2c6.5,9.2,16.8,31.7,18.2,36c1.3,4.3,19.5,50.8,20.2,52.5C159.2,228.4,166.9,225.4,166.9,225.4z"/>
</g>
</svg>
