<!-- Generator: Adobe Illustrator 19.2.1, SVG Export Plug-In  -->
<svg version="1.1"
	 xmlns="http://www.w3.org/2000/svg" xmlns:xlink="http://www.w3.org/1999/xlink" xmlns:a="http://ns.adobe.com/AdobeSVGViewerExtensions/3.0/"
	 x="0px" y="0px" width="706.4px" height="474.3px" viewBox="0 0 706.4 474.3" style="enable-background:new 0 0 706.4 474.3;"
	 xml:space="preserve">
<style type="text/css">
	.st0{fill:#F5EDE1;}
</style>
<defs>
</defs>
<path class="st0" d="M178.7,3.5c-1.5-2.9-4.7-3.5-8-3.5c-16,0.1-73.1,7.6-119.1,46.5C20.5,72.9-2,98.5,0.1,170.3
	c1.4,47.3,36.8,83.2,58.2,94.2c47.7,24.5,64,32,71.7,45c13.4,22.5,1.3,42.3-13.9,48.5c-13.4,5.5-27.1,4-36.1,3.3
	c-5.2-0.4-8.9,4.8-6.9,9.6l23.3,54.7c1,2.4,3.3,4,5.9,4.2c15.7,0.9,70.9,1.5,110.5-29.2c31.5-24.4,37.5-42.7,38.6-67.8
	c2-46.6-28.7-67.5-58.6-89.5c-15.8-11.6-18.2-38.7,15.5-49.8c13.8-4.5,38.1-7.6,52.9-7.4c5.2,0,8.5-5.4,6.2-10.1L178.7,3.5z"/>
<g>
	<path class="st0" d="M525.8,249.8c-0.2,4.1,1.6,4.5,4.1,1.1c4.4-6.3,8.7-10.5,12.9-14.7c6.9-6.8,13.7-10.3,20.3-10.3
		c5.7,0,10.5,2.4,14.5,7.1c4,4.7,6,10.5,6,17.5c0,4.5-1.1,8.9-3.4,13.3c-1.6,3-3.7,6-6.4,9c-1.5,1.7-4.6,1.2-5.3-0.8
		c-1.3-3.5-2.8-6.3-4.5-8.2c-2.4-2.8-5.2-4.2-8.6-4.2c-5,0-10.2,3.2-15.6,9.7c-5.4,6.4-15.4,29.7-17.8,63.2
		c-0.5,7.5,0.3,27.9,2.5,49.9c1.3,12.4,3.9,22.7,7.1,31c0.4,1.1,0,2.2-1,2.9c-3.5,2.2-6.9,4-10.2,5.2c-3.9,1.5-12.1,1.1-15.9,1.1
		c-5,0-8.4-1.6-10.2-4.9c-1.9-3.3-2.8-9.8-2.8-19.6c0-3.6,0.5-17.4,1.6-41.4c1.1-24,1.6-46.3,1.6-66.9c0-16.9-0.5-29.9-1.5-38.9
		c-0.9-8.1-2.4-15.4-4.3-21.8c-0.4-1.3,0.3-2.6,1.7-3.1c1.2-0.5,2.4-0.8,3.6-1.1c2-0.5,4-0.7,6.1-0.7c5.9,0,18.7-1.6,21.5,2.1
		c2.8,3.7,4.3,9.3,4.3,16.9C526,244.4,525.9,246.8,525.8,249.8L525.8,249.8z"/>
</g>
<g id="Layer_18_copy">
	<path class="st0" d="M588.3,270.9l2-40.3c0.2-2.6,1.7-4.9,3.9-6c9.1-4.5,3.3-0.9,29.6-2.4c6.2-0.4,11.4-1.1,11.4,5.4v24.3l-0.3,18
		c0,2.4,0,4.6,0.1,6.5c0.1,5.3,0.1,12.6,0.1,21.8c0,4.2,0,7.5,0.1,10.1l0.7,42.2c0.1,8.6,0.6,27.3,1.3,56.2c0.1,3.2-1.7,6.1-4.4,7.2
		c-7.7,3.2-14.7,5.9-21.1,8.1c-4.5,1.5-9-2.2-8.8-7.3c0.6-19.6,1-46.2,1-79.7l-0.3-48.9c0-4.5-3.6-7.7-7.7-7.3
		c-0.4,0-0.8,0.1-1.1,0.1h0C591,278.7,588,275.1,588.3,270.9z"/>
	<path class="st0" d="M657.7,167.2l-0.1-20.1c0-2.1,1-3.9,2.5-4.4c1.5-0.5,3.7-1.2,6.6-2c6.5-2.1,11.9-4,16-5.6
		c2.1-0.8,4.2,1.3,4.2,4.2c0,1.3,0,2.6,0,4c0,5.6-0.2,14.5-0.5,26.7c-0.1,2.4,1.3,4.5,3,4.6c2.2,0.2,5.2,0.3,9,0.3
		c1.7,0,3.3-0.1,4.5-0.2c2-0.2,3.7,2.1,3.5,4.8c-1.3,24.1-2.3,39.8-2.8,47.1c-0.1,1.8-1.1,3.4-2.4,3.8c-3.4,1.3-7.6,2.3-12.7,3.1
		c-1.6,0.3-2.9,2.1-2.9,4.3c-0.4,26.6-0.6,44.9-0.6,54.8c0,16.9,1.3,30.4,3.9,40.4c2.3,8.9,6.1,16.1,11.5,21.5
		c1.1,1.1,1.6,3,1.2,4.8L686.9,427c-0.7,3-3.3,4.1-5.2,2.3c-18.2-18.2-27.4-49.8-27.4-94.8c0-8,0.4-23.3,1.3-46
		c0.7-19.2,1.2-33.2,1.4-42.2c0.1-2.9-1.9-5.1-4.1-4.5c0,0-0.1,0-0.1,0c-2.4,0.8-4.6-2.2-4-5.4l8.5-44.6c0.1-0.4,0.1-0.7,0.1-1.1
		v-5.3L657.7,167.2z"/>
</g>
<g id="Layer_20_copy">
	<g>
		<path class="st0" d="M410.9,223.4c3.2,0.1,5.6,0.8,7.3,2.2c1.7,1.4,2.5,4.8,2.3,10.2c-0.3,2.5-1.6,5.7-3.9,9.8
			c-2.3,4.1-3.9,9.4-4.6,16c-0.9,8.6-1.5,19.3-1.8,32.1c-0.3,14.4-0.2,25.9,0.3,34.5c0.5,9.6,1.5,19,3,28.2
			c1.5,9.2,5.4,16.2,6.2,13.9c1.9-5.3,1.9-5.3,5.8-19c3.9-13.7,7.5-29.1,10.6-46.1c3.2-17.1,5.1-29.4,6-37.1
			c0.1-1.7,0.3-3.6,0.6-5.8c0.3-2.2,0.4-3.7,0.4-4.5c0.1-3.7-1-7.4-3.4-11c-1.6-2.4-2.4-6-2.3-10.9c0.4-4.3,1.4-7.1,3.1-8.4
			c1.7-1.2,4.3-1.8,7.9-1.7l20.8,0.6c3.8,0.1,6.3,0.7,7.7,1.7c1.4,1.1,2.1,3.6,2,7.5c-0.4,3.8-1.8,7.9-4.3,12
			c-0.4,1.4-0.9,2.7-1.6,4c-0.7,1.3-1.1,2.6-1.4,3.7c-0.7,2.5-1.8,8.5-3.6,18.1c-1.7,9.6-2.7,14.9-2.9,15.8
			c-4.2,24.6-10.5,51.3-18.9,80.1c-8.4,28.8-18,53.6-28.9,74.2c-10.9,20.6-21.9,30.8-32.9,30.6c-3.4-0.1-10.4-1.5-14.7-4
			c-7.7-4.3-9.4-11.9-9.2-19.6c0.5-5.8,2-10.5,4.4-14c2.4-3.5,4.9-5.2,7.7-5.2c2.2,0.1,4.7,1.4,7.4,4.1c2.7,2.7,4.4,4,5.1,4
			c1.7,0,4.1-2,7.1-6.1c3.1-4.1,5.5-8,7.4-11.8c3.9-7.4,7.4-15.6,10.4-24.6c-3,1.6-5.8,2.4-8.5,2.3c-7.8-0.2-14.1-7-18.9-20.6
			c-4.4-12.6-6.2-43.4-5.5-92.3l0.7-28.6c0.1-5.6-0.4-10.2-1.6-13.7c-1.2-3.5-1.8-6.8-1.7-9.9c0.7-6.9,3.9-10.3,9.5-10.1
			L410.9,223.4z"/>
	</g>
</g>
<g id="Layer_21_copy">
	<g>
		<path class="st0" d="M287.6,397.8c-0.6,4.3-8.4,35.2-8.4,42.9c0,0,0,0,0,0.1c0.3,2.6,1.4,4.6,3.3,5.9c0,0,0.1,0.1,0.1,0.1
			c2.4,3.2,3.6,6.6,3.6,10.2c0,0,0,0,0,0.1c-0.9,6.8-4.6,10.3-11.4,10.3h-29.4c-2.9,0-5.1-0.6-6.6-1.8c-1.5-1.2-2.3-4-2.3-8.5
			c0.2-3.4,2-6.8,5.5-10.3c2.4-1.8,4-3.7,4.6-5.9c0.3-1.1,1.3-7,2.8-17.8l19.5-146.4c0.8-6.3,1.2-10.5,1.2-12.4
			c0-4.4-1.4-8-4.2-10.8c0,0-0.1-0.1-0.1-0.1c-2-1.2-3-4-3-8.6c0.4-5.3,4.8-10.7,13.1-16.2c8.3-5.5,14.4-8.3,18.2-8.3
			c3.7,0,5.7,7.4,5.8,22.2c0,0.5,0.7,0.6,1,0.2c9.6-14.9,19.7-22.4,30.2-22.4c7.6,0,14.2,2.8,19.7,8.3c5.5,5.5,9.7,13.1,12.5,22.9
			c2.8,9.7,4.2,20.9,4.2,33.4c0,5.9-0.3,11.9-0.9,17.8c-1.6,15.6-5.1,29.8-10.3,42.5c-5.2,12.7-11.7,22.8-19.4,30.3
			s-18.8,18-49.4,14.1c-4-0.5-7.9-1.5-11.6-4.6c-3.7-3.1-5.6-8.1-5.6-14.9c0,0,0,0,0,0c0.4-5.4,1.9-8,4.6-8c0.9,0,2.4,0.2,4.3,0.5
			c1.9,0.4,3.3,0.5,4.2,0.5c5.5,0,25.4,6.1,40.3-16.4c7-10.6,8.9-25,10.4-41.8c0.6-5.2,1-11,1-17.3c0-26-5.1-39-15.3-39
			c-5.5,0-10.2,3.4-14,10.3c-3.6,6.1-6.1,16.6-7.4,31.5L287.6,397.8z"/>
	</g>
</g>
<path class="st0" d="M613.7,206.6l-6.9-11c-0.7-1.2-2.2-1.6-3.5-1l-11.5,6c-2.1,1.1-4.5-1-3.7-3.2l4.4-12.3c0.5-1.3-0.2-2.7-1.4-3.3
	l-11.9-5.3c-2.2-1-2.1-4.1,0.2-4.9l12.3-4.2c1.3-0.5,2.1-1.8,1.7-3.2l-3.3-12.6c-0.6-2.3,2-4.2,4-2.9l11,7c1.2,0.7,2.7,0.5,3.5-0.6
	l7.8-10.4c1.4-1.9,4.5-1.1,4.8,1.3l1.4,12.9c0.1,1.4,1.3,2.4,2.7,2.4l13-0.4c2.4-0.1,3.7,2.8,1.9,4.5l-9.2,9.1c-1,1-1.1,2.5-0.2,3.6
	l8.4,9.9c1.6,1.8,0.1,4.6-2.3,4.3l-12.9-1.5c-1.4-0.2-2.6,0.8-2.9,2.1l-2.5,12.8C618.1,208.1,615,208.7,613.7,206.6z"/>
</svg>
