<svg id="Layer_10" data-name="Layer 10" xmlns="http://www.w3.org/2000/svg" viewBox="0 0 400.43 400.43"><defs><style>.cls-1{fill:#fff;stroke:#000;stroke-miterlimit:10;stroke-width:2px;}.cls-2{fill:#f5ede1;}.cls-3,.cls-6{fill:none;stroke:#999;}.cls-3{stroke-width:10px;}.cls-4{fill:#cc670c;}.cls-5{fill:#ed1b24;}.cls-6{stroke-width:3px;}.cls-7{fill:#ff9239;}</style></defs><title>Phone</title><rect class="cls-1" x="102.5" y="7" width="195.43" height="375.29" rx="23" ry="23"/><rect class="cls-2" x="112.43" y="63.08" width="175.67" height="255.92" rx="4" ry="4"/><line class="cls-3" x1="206.43" y1="82.5" x2="220.93" y2="330.5"/><path class="cls-3" d="M172.93,89c0,30.4-27.28,55-61,55"/><path class="cls-3" d="M257.93,89c0,128.79-9.62,233-21.5,233"/><path class="cls-3" d="M190.43,327c0-60.52-35.11-109.5-78.5-109.5"/><path d="M291.43,65a5,5,0,0,0-5-5h-172a5,5,0,0,0-5,5V333a5,5,0,0,0,5,5h172a5,5,0,0,0,5-5V65Zm-7,243h-169V66h169V308Z"/><rect class="cls-4" x="115.43" y="65.5" width="169.5" height="27.5"/><path class="cls-5" d="M177.93,182.5a17.5,17.5,0,1,0,17.5,17.5A17.5,17.5,0,0,0,177.93,182.5Zm0,28a10.5,10.5,0,1,1,10.5-10.5A10.5,10.5,0,0,1,177.93,210.5Z"/><polygon class="cls-5" points="163.93 211 177.93 228 191.93 211 163.93 211"/><circle class="cls-6" cx="200.43" cy="359" r="11.75"/><rect class="cls-7" x="120.43" y="71" width="158" height="18" rx="4" ry="4"/><path class="cls-2" d="M129,74.38a4.5,4.5,0,1,0,4.5,4.5A4.5,4.5,0,0,0,129,74.38Zm0,7.88a3.38,3.38,0,1,1,3.38-3.37A3.38,3.38,0,0,1,129,82.25Z"/><rect class="cls-2" x="130.11" y="83.37" width="6.75" height="1.88" transform="translate(98.71 -69.69) rotate(45)"/><rect class="cls-2" x="119.26" y="313.67" width="29.91" height="17.33" rx="4" ry="4"/><rect class="cls-2" x="163" y="313.67" width="29.91" height="17.33" rx="4" ry="4"/><rect class="cls-2" x="206.45" y="313.67" width="29.91" height="17.33" rx="4" ry="4"/><rect class="cls-2" x="250.19" y="313.67" width="29.91" height="17.33" rx="4" ry="4"/><rect x="179.3" y="37.5" width="42.25" height="5" rx="2.5" ry="2.5"/><circle cx="166.74" cy="40" r="2.5"/><circle cx="200.05" cy="24.13" r="4.63"/></svg>