<!-- Generator: Adobe Illustrator 19.2.1, SVG Export Plug-In  -->
<svg version="1.1"
	 xmlns="http://www.w3.org/2000/svg" xmlns:xlink="http://www.w3.org/1999/xlink" xmlns:a="http://ns.adobe.com/AdobeSVGViewerExtensions/3.0/"
	 x="0px" y="0px" width="126.7px" height="166.2px" viewBox="0 0 126.7 166.2" style="enable-background:new 0 0 126.7 166.2;"
	 xml:space="preserve">
<style type="text/css">
	.st0{fill:#B68051;}
	.st1{fill:#8CA328;}
	.st2{fill:#678704;}
</style>
<defs>
</defs>
<path class="st0" d="M57.6,43.3c0,0,2-6.2,7-7.7s6.7-2.8,7.7-4.8s4.2-7.5,7.3-6.4c3.1,1,6.7-1.1,6.4,0.3
	c-0.3,1.5-10.3,11.4-11.7,17.1c-1.3,5.7-7.2,6.7-9.7,5.2c-2.5-1.5-11.3,5-11.2,7.7c0.2,2.7-5.9,3.8-9.5,3.8c-3.6,0-10.7-2-10.7-3.5
	s7.7-8.1,11.6-9.8C48.6,43.5,53.4,43.7,57.6,43.3z"/>
<g>
	<path id="More_stem_2_" class="st1" d="M70.1,43.3c1.3,4.8-7.4-2.9-13.2-2.2S45.2,42.7,46.2,46s1,4.2-4.5,2.8
		c-5.5-1.3-11.5,2.2-7.1,3.9s13.1,4.4,13.6,4.9s1.9,1.7,2.7,3c0.8,1.3,2.3,5,7.3,4s17.3-2,18.8-5.3c1.5-3.3,3.2-9.3,3.2-12.5
		c0-3.2,0.2-7.3,0-8.8c-0.2-1.5,3-6,3.5-7.8c0.5-1.8,0.3-4.7-3.3-1.7s-5,2.2-7.3,0.5C70.7,27.3,68.7,38.5,70.1,43.3z"/>
	<path id="Stem_2_" class="st2" d="M126.7,164.3c0,0-23-61.7-29.3-72.7s-12.5-21-13.3-23.8c-0.8-2.8-2.7-7,1.3-12.3
		s3.8-16.7,6.5-35.2c1.4-9.6-5.3-19.2-6.3-20c-1-0.8-1.3-0.2-0.3,2.3s5.2,10.2,4.2,15.2S85.6,36.3,85.7,38c0.2,1.7-2,3.7-3.8-2.5
		c-1.8-6.2-6.5-14.8-7.5-18.2c-1-3.3-4-12.3-4.5-14.8s-1.5,3.2,0,9.8c1.5,6.7,6.8,22.8,6.3,26.8s2.2,17.3-4.5,16.8
		c-6.7-0.5-8.5-6.7-12-8.5s-9.7-6-12-8.5c-2.3-2.5-11.7-5.7-6.8-2.2S50.7,48,53.7,49.5s8.5,5.8,8,8.5s-0.3,6.5-6.3,5
		c-6-1.5-9.4-3.7-15.9-4.3c-6.5-0.7-8-1.5-15.6,0.5s-12-1.8-12.7-2.5c-0.7-0.7-4.2-0.3,1.2,2.3s8,2.3,12.8,1.5
		c4.8-0.8,11.8,0.5,14.5,1c2.7,0.5,12.5,4.2,14.7,5.2c2.2,1-4.8-0.5-9,0c-2.5,0.3-6.2,1.3-9.9,2c-2.4,0.4-12,0.1-15.1-0.3
		c-5.3-0.7-11.1-1.7-14.2-3.5c-4.8-2.8-9.2-3.5-3.7-0.7C8.1,67,14.2,70,22.2,71s19.7-1.2,23-1.2c3.3,0,7.9,0,11.6-0.2
		c3.7-0.2,4.9,0.5,9.4-0.7s7.3-1,13.8,8.2c6.5,9.2,16.8,31.7,18.2,36c1.3,4.3,19.5,50.8,20.2,52.5
		C119.1,167.3,126.7,164.3,126.7,164.3z"/>
</g>
</svg>
